<?xml version="1.0" encoding="UTF-8" standalone="no"?>
<svg
   width="432pt"
   height="432pt"
   viewBox="0 0 432 432"
   version="1.1"
   id="svg11"
   sodipodi:docname="icon.svg"
   inkscape:version="1.3 (0e150ed6c4, 2023-07-21)"
   inkscape:export-filename="icon.png"
   inkscape:export-xdpi="96"
   inkscape:export-ydpi="96"
   xmlns:inkscape="http://www.inkscape.org/namespaces/inkscape"
   xmlns:sodipodi="http://sodipodi.sourceforge.net/DTD/sodipodi-0.dtd"
   xmlns="http://www.w3.org/2000/svg"
   xmlns:svg="http://www.w3.org/2000/svg"
   xmlns:rdf="http://www.w3.org/1999/02/22-rdf-syntax-ns#"
   xmlns:cc="http://creativecommons.org/ns#"
   xmlns:dc="http://purl.org/dc/elements/1.1/">
  <sodipodi:namedview
     id="namedview11"
     pagecolor="#ffffff"
     bordercolor="#999999"
     borderopacity="1"
     inkscape:showpageshadow="2"
     inkscape:pageopacity="0"
     inkscape:pagecheckerboard="0"
     inkscape:deskcolor="#d1d1d1"
     inkscape:document-units="pt"
     inkscape:zoom="1.1710069"
     inkscape:cx="467.54635"
     inkscape:cy="512.80654"
     inkscape:window-width="3072"
     inkscape:window-height="1622"
     inkscape:window-x="4597"
     inkscape:window-y="-11"
     inkscape:window-maximized="1"
     inkscape:current-layer="svg11" />
  <metadata
     id="metadata1">
    <rdf:RDF>
      <cc:Work>
        <dc:type
           rdf:resource="http://purl.org/dc/dcmitype/StillImage" />
        <dc:date>2024-04-24T14:40:44.086216</dc:date>
        <dc:format>image/svg+xml</dc:format>
        <dc:creator>
          <cc:Agent>
            <dc:title>Matplotlib v3.8.0, https://matplotlib.org/</dc:title>
          </cc:Agent>
        </dc:creator>
      </cc:Work>
    </rdf:RDF>
  </metadata>
  <defs
     id="defs1">
    <style
       type="text/css"
       id="style1">*{stroke-linejoin: round; stroke-linecap: butt}</style>
    <filter
       style="color-interpolation-filters:sRGB;"
       inkscape:label="Drop Shadow"
       id="filter87"
       x="-0.046870987"
       y="-0.046870987"
       width="1.1132716"
       height="1.1132716">
      <feFlood
         result="flood"
         in="SourceGraphic"
         flood-opacity="0.498039"
         flood-color="rgb(0,0,0)"
         id="feFlood86" />
      <feGaussianBlur
         result="blur"
         in="SourceGraphic"
         stdDeviation="6.000000"
         id="feGaussianBlur86" />
      <feOffset
         result="offset"
         in="blur"
         dx="6.000000"
         dy="6.000000"
         id="feOffset86" />
      <feComposite
         result="comp1"
         operator="in"
         in="flood"
         in2="offset"
         id="feComposite86" />
      <feComposite
         result="comp2"
         operator="over"
         in="SourceGraphic"
         in2="comp1"
         id="feComposite87" />
    </filter>
    <filter
       style="color-interpolation-filters:sRGB;"
       inkscape:label="Drop Shadow"
       id="filter89"
       x="-0.13842142"
       y="-0.13842142"
       width="1.332583"
       height="1.332583">
      <feFlood
         result="flood"
         in="SourceGraphic"
         flood-opacity="0.498039"
         flood-color="rgb(0,0,0)"
         id="feFlood87" />
      <feGaussianBlur
         result="blur"
         in="SourceGraphic"
         stdDeviation="6.000000"
         id="feGaussianBlur87" />
      <feOffset
         result="offset"
         in="blur"
         dx="6.000000"
         dy="6.000000"
         id="feOffset87" />
      <feComposite
         result="comp1"
         operator="in"
         in="flood"
         in2="offset"
         id="feComposite88" />
      <feComposite
         result="comp2"
         operator="over"
         in="SourceGraphic"
         in2="comp1"
         id="feComposite89" />
    </filter>
    <filter
       style="color-interpolation-filters:sRGB;"
       inkscape:label="Drop Shadow"
       id="filter97"
       x="-0.039540938"
       y="-0.039540938"
       width="1.0905649"
       height="1.0905649">
      <feFlood
         result="flood"
         in="SourceGraphic"
         flood-opacity="0.498039"
         flood-color="rgb(0,0,0)"
         id="feFlood96" />
      <feGaussianBlur
         result="blur"
         in="SourceGraphic"
         stdDeviation="2.8695237"
         id="feGaussianBlur96" />
      <feOffset
         result="offset"
         in="blur"
         dx="2.000000"
         dy="2.000000"
         id="feOffset96" />
      <feComposite
         result="comp1"
         operator="in"
         in="flood"
         in2="offset"
         id="feComposite96" />
      <feComposite
         result="comp2"
         operator="over"
         in="SourceGraphic"
         in2="comp1"
         id="feComposite97" />
    </filter>
    <filter
       style="color-interpolation-filters:sRGB;"
       inkscape:label="Drop Shadow"
       id="filter103"
       x="-0.0099709886"
       y="-0.0099709885"
       width="1.0240966"
       height="1.0240966">
      <feFlood
         result="flood"
         in="SourceGraphic"
         flood-opacity="0.498039"
         flood-color="rgb(0,0,0)"
         id="feFlood102" />
      <feGaussianBlur
         result="blur"
         in="SourceGraphic"
         stdDeviation="1.000000"
         id="feGaussianBlur102" />
      <feOffset
         result="offset"
         in="blur"
         dx="1.000000"
         dy="1.000000"
         id="feOffset102" />
      <feComposite
         result="comp1"
         operator="in"
         in="flood"
         in2="offset"
         id="feComposite102" />
      <feComposite
         result="comp2"
         operator="over"
         in="SourceGraphic"
         in2="comp1"
         id="feComposite103" />
    </filter>
    <filter
       style="color-interpolation-filters:sRGB;"
       inkscape:label="Drop Shadow"
       id="filter105"
       x="-0.070535069"
       y="-0.070535069"
       width="1.1653926"
       height="1.1653926">
      <feFlood
         result="flood"
         in="SourceGraphic"
         flood-opacity="0.498039"
         flood-color="rgb(0,0,0)"
         id="feFlood103" />
      <feGaussianBlur
         result="blur"
         in="SourceGraphic"
         stdDeviation="1.000000"
         id="feGaussianBlur103" />
      <feOffset
         result="offset"
         in="blur"
         dx="1.000000"
         dy="1.000000"
         id="feOffset103" />
      <feComposite
         result="comp1"
         operator="in"
         in="flood"
         in2="offset"
         id="feComposite104" />
      <feComposite
         result="comp2"
         operator="over"
         in="SourceGraphic"
         in2="comp1"
         id="feComposite105" />
    </filter>
  </defs>
  <g
     id="g105"
     transform="matrix(1.2819365,0,0,1.2856707,-74.474855,-70.544402)">
    <g
       id="patch_2"
       style="filter:url(#filter105)">
      <path
         d="m 241.95715,218.16 c 0,-2.69954 -0.53175,-5.37283 -1.56482,-7.86688 -1.03307,-2.49405 -2.54737,-4.76036 -4.45623,-6.66922 -1.90886,-1.90887 -4.17517,-3.42316 -6.66922,-4.45623 -2.49405,-1.03307 -5.16734,-1.56482 -7.86688,-1.56482 -2.69954,0 -5.37283,0.53175 -7.86688,1.56482 -2.49405,1.03307 -4.76036,2.54736 -6.66922,4.45623 -1.90887,1.90886 -3.42316,4.17517 -4.45623,6.66922 -1.03307,2.49405 -1.56482,5.16734 -1.56482,7.86688 0,2.69954 0.53175,5.37283 1.56482,7.86688 1.03307,2.49405 2.54736,4.76036 4.45623,6.66922 1.90886,1.90886 4.17517,3.42316 6.66922,4.45623 2.49405,1.03307 5.16734,1.56482 7.86688,1.56482 2.69954,0 5.37283,-0.53175 7.86688,-1.56482 2.49405,-1.03307 4.76036,-2.54737 6.66922,-4.45623 1.90886,-1.90886 3.42316,-4.17517 4.45623,-6.66922 1.03307,-2.49405 1.56482,-5.16734 1.56482,-7.86688 m -20.55715,0 c 0,0 0,0 0,0 0,0 0,0 0,0 0,0 0,0 0,0 0,0 0,0 0,0 0,0 0,0 0,0 0,0 0,0 0,0 0,0 0,0 0,0 0,0 0,0 0,0 z"
         clip-path="url(#p7d126f1e7e)"
         style="fill:#74bfdf;stroke:#74bfdf;stroke-linejoin:miter"
         id="path2" />
    </g>
    <g
       id="patch_3"
       style="fill:#aa67a7;fill-opacity:1;filter:url(#filter89)">
      <path
         d="m 275.22115,218.16 c 0,-7.06773 -1.39219,-14.06673 -4.09689,-20.59646 -2.7047,-6.52973 -6.66932,-12.4632 -11.66696,-17.46084 -4.99764,-4.99764 -10.93111,-8.96226 -17.46084,-11.66696 -6.52973,-2.7047 -13.52873,-4.09689 -20.59646,-4.09689 -7.06773,0 -14.06673,1.39219 -20.59646,4.09689 -6.52973,2.7047 -12.4632,6.66932 -17.46084,11.66696 -4.99764,4.99764 -8.96226,10.93111 -11.66696,17.46084 -2.7047,6.52973 -4.09689,13.52873 -4.09689,20.59646 0,7.06773 1.39219,14.06673 4.09689,20.59646 2.7047,6.52973 6.66932,12.4632 11.66696,17.46084 4.99764,4.99764 10.93111,8.96226 17.46084,11.66696 6.52973,2.7047 13.52873,4.09689 20.59646,4.09689 7.06773,0 14.06673,-1.39219 20.59646,-4.09689 6.52973,-2.7047 12.4632,-6.66932 17.46084,-11.66696 4.99764,-4.99764 8.96226,-10.93111 11.66696,-17.46084 2.7047,-6.52973 4.09689,-13.52873 4.09689,-20.59646 m -20.55715,0 c 0,4.36819 -0.86044,8.6939 -2.53207,12.72958 -1.67164,4.03568 -4.12195,7.70284 -7.21073,10.79162 -3.08878,3.08878 -6.75594,5.53909 -10.79162,7.21073 -4.03568,1.67163 -8.36139,2.53207 -12.72958,2.53207 -4.36819,0 -8.6939,-0.86044 -12.72958,-2.53207 -4.03568,-1.67164 -7.70284,-4.12195 -10.79162,-7.21073 -3.08878,-3.08878 -5.5391,-6.75594 -7.21073,-10.79162 -1.67163,-4.03568 -2.53207,-8.36139 -2.53207,-12.72958 0,-4.36819 0.86044,-8.6939 2.53207,-12.72958 1.67163,-4.03568 4.12195,-7.70284 7.21073,-10.79162 3.08878,-3.08878 6.75594,-5.5391 10.79162,-7.21073 4.03568,-1.67163 8.36139,-2.53207 12.72958,-2.53207 4.36819,0 8.6939,0.86044 12.72958,2.53207 4.03568,1.67163 7.70284,4.12195 10.79162,7.21073 3.08878,3.08878 5.53909,6.75594 7.21073,10.79162 1.67163,4.03568 2.53207,8.36139 2.53207,12.72958 z"
         clip-path="url(#p7d126f1e7e)"
         style="fill:#aa67a7;fill-opacity:1;stroke:#b859b3;stroke-linejoin:miter"
         id="path3" />
    </g>
    <g
       id="patch_4"
       style="fill:#efd563;fill-opacity:1;stroke:none;filter:url(#filter97)">
      <path
         d="m 308.48515,218.16 c 0,-11.43592 -2.25262,-22.76064 -6.62896,-33.32605 -4.37634,-10.56541 -10.79127,-20.16604 -18.87769,-28.25245 -8.08641,-8.08642 -17.68705,-14.50135 -28.25246,-18.87769 -10.5654,-4.37634 -21.89012,-6.62896 -33.32604,-6.62896 -11.43592,0 -22.76064,2.25262 -33.32605,6.62896 -10.56541,4.37634 -20.16604,10.79127 -28.25245,18.87769 -8.08642,8.08641 -14.50135,17.68704 -18.87769,28.25245 -4.37634,10.56541 -6.62896,21.89013 -6.62896,33.32605 0,11.43592 2.25262,22.76063 6.62896,33.32604 4.37634,10.56541 10.79127,20.16605 18.87769,28.25246 8.08641,8.08642 17.68704,14.50135 28.25245,18.87769 10.56541,4.37634 21.89013,6.62896 33.32605,6.62896 11.43592,0 22.76064,-2.25262 33.32604,-6.62896 10.56541,-4.37634 20.16605,-10.79127 28.25246,-18.87769 8.08642,-8.08641 14.50135,-17.68705 18.87769,-28.25246 4.37634,-10.56541 6.62896,-21.89012 6.62896,-33.32604 m -20.55715,0 c 0,8.73638 -1.72088,17.3878 -5.06414,25.45916 -3.34327,8.07136 -8.24391,15.40569 -14.42146,21.58324 -6.17755,6.17755 -13.51188,11.07819 -21.58324,14.42146 -8.07136,3.34326 -16.72278,5.06414 -25.45916,5.06414 -8.73638,0 -17.3878,-1.72088 -25.45916,-5.06414 -8.07136,-3.34327 -15.40569,-8.24391 -21.58324,-14.42146 -6.17755,-6.17755 -11.07819,-13.51188 -14.42146,-21.58324 -3.34326,-8.07136 -5.06414,-16.72278 -5.06414,-25.45916 0,-8.73638 1.72088,-17.3878 5.06414,-25.45916 3.34327,-8.07136 8.24391,-15.40569 14.42146,-21.58324 6.17755,-6.17755 13.51188,-11.07819 21.58324,-14.42146 8.07136,-3.34326 16.72278,-5.06414 25.45916,-5.06414 8.73638,0 17.3878,1.72088 25.45916,5.06414 8.07136,3.34327 15.40569,8.24391 21.58324,14.42146 6.17755,6.17755 11.07819,13.51188 14.42146,21.58324 3.34326,8.07136 5.06414,16.72278 5.06414,25.45916 z"
         clip-path="url(#p7d126f1e7e)"
         style="fill:#efd563;fill-opacity:1;stroke:none;stroke-linejoin:miter"
         id="path4" />
    </g>
    <g
       id="patch_5"
       style="fill:#74bfdf;fill-opacity:1;stroke:none;filter:url(#filter103)">
      <path
         d="m 341.74915,218.16 c 0,-15.80411 -3.11306,-31.45454 -9.16103,-46.05563 -6.04797,-14.60109 -14.91323,-27.86888 -26.08842,-39.04407 -11.17519,-11.17519 -24.44298,-20.04045 -39.04407,-26.08842 -14.60109,-6.04797 -30.25152,-9.161032 -46.05563,-9.161032 -15.80411,0 -31.45454,3.113062 -46.05563,9.161032 -14.60109,6.04797 -27.86888,14.91323 -39.04407,26.08842 -11.17519,11.17519 -20.04045,24.44298 -26.08842,39.04407 -6.04797,14.60109 -9.16103,30.25152 -9.16103,46.05563 0,15.80411 3.11306,31.45454 9.16103,46.05563 6.04797,14.60109 14.91323,27.86888 26.08842,39.04407 11.17519,11.17519 24.44298,20.04045 39.04407,26.08842 14.60109,6.04797 30.25152,9.16103 46.05563,9.16103 15.80411,0 31.45454,-3.11306 46.05563,-9.16103 14.60109,-6.04797 27.86888,-14.91323 39.04407,-26.08842 11.17519,-11.17519 20.04045,-24.44298 26.08842,-39.04407 6.04797,-14.60109 9.16103,-30.25152 9.16103,-46.05563 m -20.55715,0 c 0,13.10456 -2.58131,26.0817 -7.59621,38.18874 -5.0149,12.10704 -12.36586,23.10853 -21.63219,32.37486 -9.26633,9.26633 -20.26782,16.61729 -32.37485,21.63219 -12.10705,5.0149 -25.08418,7.59621 -38.18875,7.59621 -13.10457,0 -26.08171,-2.58131 -38.18875,-7.59621 -12.10704,-5.0149 -23.10852,-12.36586 -32.37485,-21.63219 -9.26633,-9.26633 -16.61729,-20.26782 -21.63219,-32.37486 -5.0149,-12.10704 -7.59621,-25.08418 -7.59621,-38.18874 0,-13.10457 2.58131,-26.08171 7.59621,-38.18874 5.0149,-12.10705 12.36586,-23.10853 21.63219,-32.37486 9.26633,-9.26633 20.26781,-16.61729 32.37485,-21.63219 12.10704,-5.0149 25.08418,-7.59621 38.18875,-7.59621 13.10457,0 26.0817,2.58131 38.18875,7.59621 12.10703,5.0149 23.10852,12.36586 32.37485,21.63219 9.26633,9.26633 16.61729,20.26781 21.63219,32.37486 5.0149,12.10703 7.59621,25.08417 7.59621,38.18874 z"
         clip-path="url(#p7d126f1e7e)"
         style="fill:#74bfdf;fill-opacity:1;stroke:none;stroke-linejoin:miter"
         id="path5" />
    </g>
    <g
       id="patch_6"
       style="fill:#aa67a7;fill-opacity:1;stroke:none;filter:url(#filter87)">
      <path
         d="m 375.01315,218.16 c 0,-20.17229 -3.9735,-40.14844 -11.6931,-58.78521 C 355.60044,140.73802 344.28487,123.80307 330.0209,109.5391 315.75693,95.275132 298.82198,83.959556 280.18521,76.239953 261.54844,68.52035 241.57229,64.546848 221.4,64.546848 c -20.17229,0 -40.14844,3.973502 -58.78521,11.693105 -18.63677,7.719603 -35.57172,19.035179 -49.83569,33.299147 -14.263968,14.26397 -25.579544,31.19892 -33.299147,49.83569 -7.719603,18.63677 -11.693105,38.61292 -11.693105,58.78521 0,20.17229 3.973502,40.14844 11.693105,58.78521 7.719603,18.63677 19.035179,35.57172 33.299147,49.83569 14.26397,14.26397 31.19892,25.57954 49.83569,33.29915 18.63677,7.7196 38.61292,11.6931 58.78521,11.6931 20.17229,0 40.14844,-3.9735 58.78521,-11.6931 18.63677,-7.71961 35.57172,-19.03518 49.83569,-33.29915 14.26397,-14.26397 25.57954,-31.19892 33.29915,-49.83569 7.7196,-18.63677 11.6931,-38.61292 11.6931,-58.78521 m -20.55715,0 c 0,17.47275 -3.44175,34.77561 -10.12829,50.91833 -6.68653,16.14272 -16.48781,30.81137 -28.84291,43.16647 -12.3551,12.3551 -27.02375,22.15638 -43.16647,28.84291 -16.14272,6.68654 -33.44558,10.12829 -50.91833,10.12829 -17.47275,0 -34.77561,-3.44175 -50.91833,-10.12829 C 154.33895,334.40118 139.6703,324.5999 127.3152,312.2448 114.9601,299.8897 105.15882,285.22105 98.472285,269.07833 91.785752,252.93561 88.344,235.63275 88.344,218.16 c 0,-17.47275 3.441752,-34.77561 10.128285,-50.91833 C 105.15882,151.09895 114.9601,136.4303 127.3152,124.0752 139.6703,111.7201 154.33895,101.91882 170.48167,95.232285 186.62439,88.545752 203.92725,85.104 221.4,85.104 c 17.47275,0 34.77561,3.441752 50.91833,10.128285 16.14272,6.686535 30.81137,16.487815 43.16647,28.842915 12.3551,12.3551 22.15638,27.02375 28.84291,43.16647 6.68654,16.14272 10.12829,33.44558 10.12829,50.91833 z"
         clip-path="url(#p7d126f1e7e)"
         style="fill:#aa67a7;fill-opacity:1;stroke:none;stroke-linejoin:miter"
         id="path6" />
    </g>
    <g
       id="patch_10">
      <path
         d="m 508.06915,218.16 c 0,-37.64505 -7.41525,-74.92405 -21.82139,-109.70354 C 471.84163,73.676975 450.72477,42.073367 424.1057,15.454299 397.48663,-11.16477 365.88302,-32.281626 331.10354,-46.687762 296.32405,-61.093898 259.04505,-68.509152 221.4,-68.509152 c -37.64505,0 -74.92405,7.415254 -109.70353,21.82139 -34.779495,14.406136 -66.383103,35.522992 -93.002171,62.142061 -26.619069,26.619068 -47.735925,58.222676 -62.142061,93.002161 -14.406136,34.77949 -21.82139,72.05849 -21.82139,109.70354 0,37.64505 7.415254,74.92405 21.82139,109.70354 14.406136,34.77949 35.522992,66.38309 62.142061,93.00216 26.619068,26.61907 58.222676,47.73593 93.002171,62.14206 34.77948,14.40614 72.05848,21.82139 109.70353,21.82139 37.64505,0 74.92405,-7.41525 109.70354,-21.82139 34.77948,-14.40613 66.38309,-35.52299 93.00216,-62.14206 26.61907,-26.61907 47.73593,-58.22267 62.14206,-93.00216 14.40614,-34.77949 21.82139,-72.05849 21.82139,-109.70354 m -20.55715,0 c 0,34.94551 -6.8835,69.55121 -20.25657,101.83665 -13.37307,32.28544 -32.97563,61.62274 -57.68583,86.33295 -24.71021,24.7102 -54.04751,44.31276 -86.33295,57.68583 C 290.95121,477.3885 256.34551,484.272 221.4,484.272 c -34.94551,0 -69.55121,-6.8835 -101.83665,-20.25657 C 87.277907,450.64236 57.940606,431.0398 33.2304,406.3296 8.520195,381.61939 -11.082363,352.28209 -24.45543,319.99665 -37.828497,287.71121 -44.712,253.10551 -44.712,218.16 c 0,-34.94551 6.883503,-69.55121 20.25657,-101.83665 C -11.082363,84.037907 8.520195,54.700606 33.2304,29.9904 57.940606,5.280195 87.277907,-14.322363 119.56335,-27.69543 151.84879,-41.068497 186.45449,-47.952 221.4,-47.952 c 34.94551,0 69.55121,6.883503 101.83665,20.25657 32.28544,13.373067 61.62274,32.975625 86.33295,57.68583 24.7102,24.710206 44.31276,54.047507 57.68583,86.33295 C 480.6285,148.60879 487.512,183.21449 487.512,218.16 Z"
         clip-path="url(#p7d126f1e7e)"
         style="fill:#e1bd17;stroke:#e1bd17;stroke-linejoin:miter"
         id="path10" />
    </g>
    <g
       id="patch_11">
      <path
         d="m 541.33315,218.16 c 0,-42.01324 -8.27569,-83.61795 -24.35346,-122.433117 C 500.90192,56.911714 477.33475,21.640943 447.6269,-8.066901 417.91906,-37.774746 382.64829,-61.341921 343.83312,-77.419691 305.01795,-93.49746 263.41324,-101.77315 221.4,-101.77315 c -42.01324,0 -83.61795,8.27569 -122.433117,24.353459 -38.815169,16.07777 -74.08594,39.644945 -103.793784,69.35279 -29.707845,29.707844 -53.27502,64.978615 -69.35279,103.793784 C -90.25746,134.54205 -98.533152,176.14676 -98.533152,218.16 c 0,42.01324 8.275692,83.61795 24.353461,122.43312 16.07777,38.81517 39.644945,74.08594 69.35279,103.79378 29.707844,29.70785 64.978615,53.27502 103.793784,69.35279 38.815167,16.07777 80.419877,24.35346 122.433117,24.35346 42.01324,0 83.61795,-8.27569 122.43312,-24.35346 38.81517,-16.07777 74.08594,-39.64494 103.79378,-69.35279 29.70785,-29.70784 53.27502,-64.97861 69.35279,-103.79378 16.07777,-38.81517 24.35346,-80.41988 24.35346,-122.43312 m -20.55715,0 c 0,39.3137 -7.74394,78.24512 -22.78864,114.56623 -15.0447,36.32112 -37.09758,69.32559 -64.89656,97.12457 -27.79898,27.79898 -60.80345,49.85186 -97.12457,64.89656 C 299.64512,509.79206 260.7137,517.536 221.4,517.536 c -39.3137,0 -78.24512,-7.74394 -114.56623,-22.78864 C 70.512646,479.70266 37.508181,457.64978 9.7092,429.8508 -18.089781,402.05182 -40.142659,369.04735 -55.187359,332.72623 -70.232059,296.40512 -77.976,257.4737 -77.976,218.16 c 0,-39.3137 7.743941,-78.24512 22.788641,-114.56623 C -40.142659,67.272646 -18.089781,34.268181 9.7092,6.4692 37.508181,-21.329781 70.512646,-43.382659 106.83377,-58.427359 143.15488,-73.472059 182.0863,-81.216 221.4,-81.216 c 39.3137,0 78.24512,7.743941 114.56623,22.788641 36.32112,15.0447 69.32559,37.097578 97.12457,64.896559 27.79898,27.798981 49.85186,60.803446 64.89656,97.12457 15.0447,36.32111 22.78864,75.25253 22.78864,114.56623 z"
         clip-path="url(#p7d126f1e7e)"
         style="fill:#74bfdf;stroke:#74bfdf;stroke-linejoin:miter"
         id="path11" />
    </g>
  </g>
  <defs
     id="defs11">
    <clipPath
       id="p7d126f1e7e">
      <rect
         x="55.08"
         y="51.84"
         width="332.64"
         height="332.64"
         id="rect11" />
    </clipPath>
  </defs>
</svg>
